<?xml version="1.0" encoding="utf-8"?>
<!-- Generator: Adobe Illustrator 15.1.0, SVG Export Plug-In . SVG Version: 6.00 Build 0)  -->
<!DOCTYPE svg PUBLIC "-//W3C//DTD SVG 1.1//EN" "http://www.w3.org/Graphics/SVG/1.1/DTD/svg11.dtd">
<svg version="1.1" id="Layer_1" xmlns="http://www.w3.org/2000/svg" xmlns:xlink="http://www.w3.org/1999/xlink" x="0px" y="0px"
	 width="1134.433px" height="300px" viewBox="0 0 1134.433 300" enable-background="new 0 0 1134.433 300" xml:space="preserve">
<path fill="#FFFFFF" d="M169.227,36.462c-4.704-10.543-20.583-3.293-20.583-3.293C161.999,41.644,169.227,36.462,169.227,36.462
	 M142.991,34.897c1.644,0,2.98-1.336,2.98-3.002c0.009-1.652-1.323-2.998-2.975-3.007c-0.002,0-0.004,0-0.005,0
	c-1.669-0.012-3.033,1.332-3.044,3.001c0,0.002,0,0.004,0,0.005C139.958,33.565,141.321,34.909,142.991,34.897L142.991,34.897
	 M179.335,37.496c0,0-5.76-0.122-11.021,3.028l16.929,0.25c0.276-0.223,0.276-0.223,0.588-0.44c0,0-8.422-22.826-30.84-25.626
	C154.992,14.707,160.413,31.593,179.335,37.496 M191.215,41.93c-0.006-1.251-1.023-2.262-2.275-2.259
	c-1.242,0.015-2.236,1.034-2.222,2.275s1.033,2.236,2.275,2.222C190.221,44.153,191.209,43.157,191.215,41.93 M100.913,40.774
	l16.908-0.25c-5.256-3.15-10.994-3.028-10.994-3.028c18.928-5.903,24.322-22.789,24.322-22.789
	c-22.402,2.8-30.824,25.626-30.824,25.626L100.913,40.774 M95.477,43.134c0,1.262,0.992,2.238,2.238,2.238
	c1.227,0,2.222-0.995,2.222-2.223c0-1.227-0.995-2.222-2.222-2.222c-1.222-0.015-2.224,0.963-2.238,2.185
	C95.477,43.12,95.477,43.126,95.477,43.134 M96.861,61.197c-12.177-8.682-29.954-1.967-29.954-1.967
	c15.789-12.018,15.661-31.211,15.661-31.211c-20.084,10.31-20.207,34.611-20.207,34.611C86.959,69.933,96.861,61.197,96.861,61.197
	 M103.67,56.435l0.154-8.226c-9.138-2.694-18.387-0.933-18.387-0.933c17.618-9.096,20.843-28.029,20.843-28.029
	c-21.58,6.661-25.929,30.58-25.929,30.58C90.316,54.775,98.075,56.329,103.67,56.435 M201.038,45.908c0,0-7.356-2.238-16.605,0.955
	l-0.021,8.411c5.637-0.085,11.376-1.442,21.755-6.932c0,0-4.933-23.834-26.656-29.943C179.51,18.398,183.191,37.231,201.038,45.908
	 M116.918,37.459c0,0,7.425,4.885,20.435-4.083C137.353,33.375,121.225,26.725,116.918,37.459 M229.926,151.543h-9.446v11.953h9.446
	V151.543z M204.469,69.63l-4.89,5.839l26.433,26.427l5.356-5.378L204.469,69.63z M255.865,68.851l-24.215-24.227l-21.691,23.595
	l23.271,22.954L255.865,68.851z M58.506,66.13c0,1.262,1.002,2.275,2.259,2.275c1.22,0,2.228-1.013,2.228-2.275
	c0-1.247-1.008-2.196-2.228-2.196c-1.215-0.032-2.226,0.927-2.258,2.142C58.506,66.094,58.506,66.112,58.506,66.13 M237.738,91.671
	c4.152,1.162,9.271,2.052,15.539,2.323c0,0,2.827-8.454,1.581-18.748l-8.141,7.828c0.88,2.095,1.989,4.174,3.378,6.237
	c0,0-2.259-1.867-5.85-3.845L237.738,91.671z M230.424,210.029h-9.456v11.955h9.456V210.029z M216.656,55.099l5.484-5.563
	c-2.313-7.833-7.048-17.321-18.732-22.922C203.408,26.613,202.941,43.362,216.656,55.099 M265.809,138.761
	c0,1.241,1.013,2.259,2.217,2.259c1.262,0,2.259-1.019,2.259-2.259c-0.015-1.238-1.021-2.235-2.259-2.238
	C266.804,136.549,265.823,137.539,265.809,138.761 M236.369,27.722c7.064,3.5,12.745-0.191,12.745-0.191
	c7.86-3.85,13.577,1.496,13.577,1.496c5.489,4.296,4.566,9.944,4.566,9.944c0,4.306-1.23,4.641-1.23,4.641
	c-2.62,1.782-1.967-1.268-1.967-1.268c0.09-0.027,0.588-2.132,0.588-2.132c1.045-9.737-7.738-11.153-7.738-11.153
	c-9.292-1.628-11.599,6.969-11.599,6.969c-0.544,2.05-0.672,4.189-0.376,6.29l-11.631-11.593l0.563,9.801L259.8,66.501h9.292
	l-9.424-9.445c3.029,0.953,6.164,1.53,9.334,1.718c13.248-0.785,14.622-13.487,14.622-13.487c3.5-13.216-9.032-23.908-9.032-23.908
	c-8.369-7.208-21.039-7.77-21.039-7.77C235.542,11.499,229.162,0,229.162,0c-2.126,5.219-1.564,12.999-1.564,12.999
	C228.796,24.921,236.369,27.722,236.369,27.722 M269.002,135.097c0,0,15.078-19.082,5.828-39.654c0,0-12.065,14.918-7.26,34.181
	c0,0-9.684-16.345-24.614-17.215C242.956,112.408,245.269,125.417,269.002,135.097 M253.669,100.136
	c1.239,0,2.243-1.004,2.243-2.243c0-1.239-1.004-2.244-2.243-2.244c-1.239,0.085-2.174,1.159-2.089,2.398
	C251.657,99.167,252.549,100.059,253.669,100.136 M208.537,63.828l6.772-7.011c-5.749-1.336-16.621-3.283-25.377,3.262
	C189.932,60.079,194.44,65.218,208.537,63.828 M262.95,113.84c0,0,11.541-21.378-1.15-40.046c0,0-9.334,16.801-1.22,34.908
	c0,0-12.378-14.41-27.233-12.66C233.346,96.042,237.849,108.473,262.95,113.84 M183.7,277.283c0,1.193,1.013,2.228,2.254,2.228
	c1.247,0,2.259-1.034,2.259-2.228c0.003-1.25-1.008-2.267-2.259-2.27l0,0C184.706,275.02,183.697,276.035,183.7,277.283
	 M194.949,275.119c0,0,12.675-10.888,12.813-24.486l-4.55,0.144c-4.089,3.606-10.098,11.249-13.423,26.703
	c0,0,21.4,11.562,40.079-1.14C229.867,276.34,213.066,267.059,194.949,275.119 M174.053,282.12c0,0,16.313-9.716,17.183-24.608
	c0,0-13.03,2.297-22.683,26.041c0,0,19.061,15.082,39.665,5.822C208.218,289.375,193.268,277.294,174.053,282.12 M152.086,286.761
	c17.008-7.849,20.758-21.065,20.758-21.065c-13.211,0.98-24.507,20.789-24.507,20.789c14.76,15.089,33.964,13.186,33.964,13.186
	C173.486,288.028,152.086,286.761,152.086,286.761 M142.656,279.845v5.601c-2.588-4.068-12.675-18.77-24.02-19.543
	c0,0,3.834,13.195,20.891,20.922c0,0-21.368,1.41-30.087,13.115c0,0,18.642,1.697,33.216-12.823v9.095h5.68v-16.366H142.656z
	 M220.968,228.279v11.975l53.47,44.311h10.692l-54.414-56.285H220.968z M214.328,264.598c0,0,4.869-5.803,7.26-13.986l-9.106-0.143
	c-1.438,4.492-2.546,10.178-2.816,17.358c0,0,19.713,6.544,35.47-4.868l-6.093-4.891
	C232.339,257.697,223.089,258.699,214.328,264.598 M108.269,278.153c0-1.241-1.008-2.265-2.249-2.265
	c-1.239,0.018-2.235,1.025-2.238,2.265c0,1.214,1.019,2.206,2.238,2.206C107.25,280.371,108.257,279.383,108.269,278.153
	L108.269,278.153 M257.748,215.619c0,0,3.06-18.779-7.785-29.041c0,0-6.651,11.455,5.351,34.159c0,0,23.829-4.933,29.959-26.661
	C285.273,194.076,266.408,197.763,257.748,215.619 M235.696,255.252l-7.881-6.422c0.132,2.01,0.435,4.121,0.785,6.401
	C228.6,255.231,231.448,255.565,235.696,255.252 M223.773,258.153c1.23,0,2.228-0.997,2.228-2.228s-0.997-2.227-2.228-2.227
	c-1.23,0-2.228,0.996-2.228,2.227S222.543,258.153,223.773,258.153 M36.226,225.474c0,1.229,1.002,2.249,2.27,2.249
	c1.242-0.002,2.248-1.01,2.247-2.252c-0.001-1.24-1.006-2.244-2.247-2.246c-1.242-0.012-2.258,0.986-2.27,2.228
	C36.226,225.459,36.226,225.467,36.226,225.474 M19.891,182.017c18.604-17.629,16-30.575,16-30.575
	c-13.587,6.217-16.674,24.964-16.674,24.964c-2.487-19.681-19.172-29.169-19.172-29.169
	C-1.105,169.755,19.891,182.017,19.891,182.017 M19.955,185.156c0,1.241,1.024,2.248,2.233,2.248
	c1.242,0.002,2.25-1.004,2.251-2.246c0.001-1.242-1.005-2.25-2.247-2.25c-0.001,0-0.003,0-0.004,0
	C20.952,182.916,19.955,183.92,19.955,185.156 M51.908,45.08L34.566,27.552c-10.74-10.729-23.489-3.644-23.489-3.644l34.16,33.996
	C47.538,49.211,51.908,45.08,51.908,45.08 M38.554,55.809L9.077,26.29c0,0-12.32,8.867-2.747,29.519H38.554z M25.783,203.336
	c15.269-20.625,10.421-32.939,10.421-32.939C23.911,178.908,24.15,197.89,24.15,197.89c-5.919-18.938-23.993-25.403-23.993-25.403
	C2.962,194.904,25.783,203.336,25.783,203.336 M39.445,261.755c0,0,3.5-2.09,8.571-2.816l-5.627-1.368l-0.531,0.727l0.531-0.727
	l-24.89,26.242c0,0-2.843,4.078-0.159,6.762c0,0,2.498,2.031,5.977-0.351l24.258-21.192
	C45.125,267.764,39.748,263.298,39.445,261.755 M86.683,251.11h-3.182c-0.175,14.044,13.381,25.171,13.381,25.171
	c-18.302-7.669-34.875,2.041-34.875,2.041c18.955,12.252,40.078,0.154,40.078,0.154C97.99,261.383,90.772,254.027,86.683,251.11
	 M35.271,223.289c11.435-22.928,4.572-34.229,4.572-34.229c-10.66,10.507-7.139,29.159-7.139,29.159
	C23.609,200.6,4.675,197.37,4.675,197.37C11.336,218.955,35.271,223.289,35.271,223.289 M100.186,258.546
	c1.204,14.919,17.777,24.227,17.777,24.227c-19.358-4.359-34.006,8.051-34.006,8.051c20.821,8.782,39.495-6.751,39.495-6.751
	C113.238,260.557,100.186,258.546,100.186,258.546 M46.865,78.381c25.462,2.869,33.725-7.414,33.725-7.414
	c-13.498-6.434-29.854,3.261-29.854,3.261c13.465-14.563,10.029-33.476,10.029-33.476C42.728,54.404,46.865,78.381,46.865,78.381
	 M48.063,241.268c7.303-24.571-1.437-34.494-1.437-34.494c-8.64,12.203-1.936,29.98-1.936,29.98
	c-12.05-15.789-31.222-15.661-31.222-15.661C23.752,241.166,48.063,241.268,48.063,241.268 M234.317,221.172
	c0,0-1.602,1.671-2.132,4.206l4.747,4.911C236.695,227.104,235.805,224,234.317,221.172 M75.864,122.776l8.767,7.717h19.649
	c-0.934-1.57-0.61-7.579-0.61-7.579L75.864,122.776z M124.725,65.122v-11.01h34.277v15.725h11.313v11.313h-10.989v5.033h10.989
	v12.267h-10.989v36.791h-9.435l-13.063-13.052l-11.944,11.954l-8.639-8.66l19.803-19.804l10.225,10.23V65.122H124.725z
	 M107.128,117.817c0,26.125,16.324,38.181,36.536,38.181c20.185,0,36.552-12.008,36.552-38.181V43.425h-73.087V117.817z
	 M80.176,74.891c0,0-2.238,3.23-10.639,5.033l10.639,9.822V74.891z M173.64,183.527c2.392,0,2.392-1.775,2.413-3.621v-16.998h4.9
	v17.989c0,2.63-0.324,7.048-7.335,7.048c-4.545,0-7.282-2.137-7.282-6.734v-18.303h4.89v15.942
	C171.227,180.744,170.988,183.527,173.64,183.527 M186.193,192.947v4.566h-4.938v5.367h4.328v4.566h-4.328v5.563h5.001v4.577h-9.891
	v-24.64H186.193z M184.867,162.908h5.479l1.421,3.426c0.414,1.204,0.891,2.467,1.172,3.771h0.048
	c0.26-1.305,0.658-2.547,1.108-3.771l1.496-3.426h5.271l-5.271,11.943l5.643,12.696h-5.643l-1.564-3.913
	c-0.431-1.208-0.793-2.438-1.087-3.687h-0.063c-0.372,1.241-0.652,2.444-1.066,3.687l-1.463,3.913h-5.479l5.224-12.696
	L184.867,162.908z M199.711,217.587l-0.923-4.142h-4.938l-0.891,4.142h-4.831l5.722-24.64h5.134l5.929,24.64H199.711z
	 M168.5,217.587l-1.167-17.74h-0.084l-0.785,6.078l-2.074,11.662h-3.76l-2.413-11.827l-0.812-5.467v-0.446h-0.058l-0.737,17.74
	h-5.219l2.143-24.64h6.443l2.371,14.531h0.064l1.978-14.531h6.534l2.572,24.64H168.5z M152.696,162.908h4.848v20.084h5.107v4.556
	h-9.955V162.908z M146.448,159.105v83.652c0,0,4.694-4.71,11.292-4.71h51.926V134.274h-27.997
	C181.669,134.274,173.714,158.734,146.448,159.105 M125.473,169.834c0-1.776-0.849-3.208-3.304-3.086h-0.652v6.592l0.849,0.037
	C124.604,173.377,125.473,171.844,125.473,169.834 M196.275,199.273h-0.053l-0.541,3.74l-1.044,6.561h3.42l-1.246-6.561
	L196.275,199.273z M64.971,89.412h0.021c-0.891,0.684-7.118,6.385-16.584,7.531l3.219,3.039l33.964-0.148L75.037,89.29l-5.325-5.377
	C69.712,83.913,65.941,88.771,64.971,89.412 M254.385,222.891c0-1.262-1.008-2.254-2.238-2.254
	c-1.228-0.003-2.225,0.989-2.228,2.217c0,0.012,0,0.024,0,0.037c0,1.225,0.981,2.248,2.228,2.248
	C253.377,225.139,254.385,224.115,254.385,222.891 M267.496,184.525c1.23,0,2.228-0.998,2.228-2.228c0-0.011,0-0.021,0-0.032
	c0-1.201-0.973-2.175-2.174-2.175c-0.018,0-0.036,0-0.054,0.001c-1.207-0.029-2.208,0.924-2.237,2.131
	c0,0.015-0.001,0.029-0.001,0.043c-0.018,1.23,0.965,2.242,2.195,2.26C267.467,184.525,267.481,184.525,267.496,184.525
	 M253.097,167.889c0,0-4.503,12.389,11.211,32.632c0,0,22.62-8.931,24.889-31.418c0,0-17.91,6.899-23.346,25.966
	C265.852,195.068,265.613,176.071,253.097,167.889 M270.222,173.462c0,0-3.5-18.663-17.236-24.592c0,0-2.302,13.031,16.706,30.246
	c0,0,20.742-12.76,19.061-35.3C288.752,143.815,272.295,153.738,270.222,173.462 M243.55,204.477c0,0-8.486,10.13-0.631,34.531
	c0,0,24.317-0.7,34.128-21.023c0,0-19.204,0.351-30.845,16.383C246.202,234.367,252.487,216.469,243.55,204.477 M270.832,151.421
	c0,0-6.698-17.756-21.278-21.193c0,0,0,13.195,21.712,26.868c0,0,18.191-16.181,12.617-38.08
	C283.883,119.016,269.394,131.644,270.832,151.421 M255.234,249.244c4.062-2.504,7.547-5.841,10.225-9.791
	c0,0-8.114-1.023-17.603,2.148L255.234,249.244z M113.684,202.838l-0.546-3.729h-0.085l-0.509,3.729l-1.044,6.587h3.442
	L113.684,202.838z M41.487,57.119c-15.38,16.552-7.16,39.421-7.16,39.421c25.589-1.543,31.927-13.131,31.927-13.131
	c-14.431-3.951-28.83,8.411-28.83,8.411C48.127,75.119,41.487,57.119,41.487,57.119 M137.48,255.189h14.781
	c0,0,0.933-6.391,5.128-6.391h61.266v-107.8l-6.088-6.443v106.839h-54.892c0,0-7.351,0.642-13.142,7.706
	c0,0-4.487-6.757-14.097-7.398H76.872V135.531l-6.577,6.587v106.681h59.808C130.103,248.799,137.48,249.101,137.48,255.189
	 M22.861,141.726c-0.014-1.239-1.014-2.242-2.254-2.259c-1.244,0.008-2.25,1.015-2.259,2.259c0,1.241,1.013,2.265,2.259,2.265
	C21.85,143.976,22.853,142.969,22.861,141.726 M20.861,132.493c4.354-19.337-8.045-33.953-8.045-33.953
	c-8.772,20.79,6.762,39.495,6.762,39.495c23.505-10.23,25.504-23.304,25.504-23.304C30.174,115.93,20.861,132.493,20.861,132.493
	 M4.288,122.294c-5.033,22.031,13.529,37.745,13.529,37.745c21.352-14.15,21.06-27.345,21.06-27.345
	c-14.462,3.75-20.747,21.686-20.747,21.686C19.08,134.556,4.288,122.294,4.288,122.294 M28.674,78.434c0,0-1.262-7.987,7.053-19.989
	H7.576C7.576,58.445,8.807,61.738,28.674,78.434 M103.039,120.013v-3.044l-14.637-14.627H54.114l19.379,17.671H103.039z
	 M67.723,243.775c0.096,0.992,0.292-0.228,0.292-0.228v-14.563l-2.435,2.652C66.97,235.301,67.426,240.583,67.723,243.775
	 M31.718,100.417c0,1.233,1,2.233,2.233,2.233c1.233,0,2.233-1,2.233-2.233c0-1.23-0.998-2.228-2.228-2.228
	c-0.007,0-0.014,0-0.021,0C32.708,98.192,31.715,99.189,31.718,100.417L31.718,100.417 M67.602,260.121
	c1.22,0,2.238-1.034,2.238-2.26c-0.006-1.241-1.017-2.243-2.259-2.237c-1.242,0.006-2.244,1.017-2.238,2.259
	S66.359,260.127,67.602,260.121 M83.22,93.072l19.819,19.485V97.484L83.22,77.676V93.072z M67.819,208.969h-9.446v11.912h9.446
	V208.969z M199.102,80.651L183.679,97.41l0.186,26.788c0,0-0.478,4.391-1.411,6.587h9.901l28.278-28.299L199.102,80.651z
	 M115.641,162.732v4.599h-4.938v5.367h4.349v4.556h-4.349v5.574h5.022v4.576h-9.901V162.77l-6.826,24.635H95.01l-7.139-24.672h5.25
	l2.933,11.849c0.414,1.421,0.588,2.827,0.891,4.216h0.053c0.26-1.41,0.382-2.826,0.753-4.301l2.986-11.764H115.641z
	 M121.776,217.443h-5.203l-0.912-4.162h-4.938l-0.891,4.162h-4.858l5.749-24.672h5.128L121.776,217.443z M116.638,162.732h4.9
	c3.107,0,8.661,0.351,8.661,7.075c0,2.721-1.071,5.044-3.484,6.392l4.28,11.205h-5.107l-4.306-11.375h-0.064v11.375h-4.879V162.732z
	 M131.98,162.732h4.848v24.672h-4.848V162.732z M128.342,217.815c-1.368,0-3.065-0.393-4.174-1.241v-4.641
	c1.129,0.785,2.238,1.336,3.675,1.336c1.586,0,2.827-1.087,2.827-2.704c0-1.883-1.522-2.631-2.885-3.606
	c-2.811-1.883-4.572-3.707-4.572-7.303c0-3.893,2.302-7.25,6.497-7.25c1.554,0,2.944,0.402,4.286,1.172v4.746
	c-0.971-0.854-2.175-1.553-3.543-1.553c-1.479,0-2.435,0.906-2.435,2.402c0,4.078,7.42,4.307,7.42,10.957
	C135.438,214.512,132.93,217.815,128.342,217.815 M104.105,197.37h-3.856v20.073h-4.89V197.37h-3.808v-4.599h12.554V197.37z
	 M79.762,134.274v103.773h51.407c5.813,0.144,11.822,4.71,11.822,4.71v-83.043c-31.158-0.673-37.448-25.44-37.448-25.44H79.762z
	 M82,269.359c-0.499-7.934-1.941-13.715-3.702-18.313h-9.111c2.466,8.66,8.067,15.184,8.067,15.184
	c-16.685-10.75-34.701-4.057-34.701-4.057C59.116,277.543,82,269.359,82,269.359 M51.07,103.069l-4.561-4.291
	c-11.09,2.837-19.14,12.67-19.14,12.67c5.197-12.442,2.392-24.104,0.063-30.278l-3.325-2.715c-9.637,18.212,1.023,38.18,1.023,38.18
	C39.901,113.071,47.411,107.274,51.07,103.069 M26.218,242.906c13.625,17.979,37.57,13.879,37.57,13.879
	c2.922-25.441-7.414-33.746-7.414-33.746c-6.391,13.523,3.304,29.854,3.304,29.854C45.125,239.453,26.218,242.906,26.218,242.906
	 M67.484,152.497h-9.414v11.954h9.414V152.497z"/>
<path fill="#FFFFFF" d="M387.25,149.181c-1.98-1.174-4.242-1.79-6.545-1.782c-7.324,0-12.192,5.283-12.192,12.431
	c0,7.457,5.367,12.41,11.965,12.41c2.275,0,5.324-0.604,6.905-1.554l0.281,4.413c-2.413,1.013-5.367,1.14-7.229,1.14
	c-10.061,0-16.737-6.465-16.737-16.558c0-9.774,7.091-16.281,16.78-16.281c2.455,0,4.868,0.371,7.133,1.368L387.25,149.181z"/>
<path fill="#FFFFFF" d="M416.513,172.24c7.324,0,10.453-6.089,10.453-12.41c0-6.465-3.452-12.469-10.453-12.432
	c-7.011-0.037-10.464,5.967-10.464,12.432C406.049,166.151,409.188,172.24,416.513,172.24 M416.513,143.399
	c9.642,0,15.279,7.006,15.279,16.431c0,9.637-5.595,16.408-15.279,16.408c-9.684,0-15.279-6.771-15.279-16.408
	C401.233,150.405,406.871,143.399,416.513,143.399"/>
<path fill="#FFFFFF" d="M447.971,143.94h4.535v27.759h13.279v3.998h-17.814V143.94z"/>
<path fill="#FFFFFF" d="M480.445,143.94h4.545v27.759h13.28v3.998h-17.825V143.94z"/>
<path fill="#FFFFFF" d="M513.198,143.94h17.788v4.02h-13.243v9.26h12.05v4.021h-12.05v10.459h13.243v3.998h-17.788V143.94z"/>
<path fill="#FFFFFF" d="M572.107,149.596c-2.229-1.469-4.641-2.196-8.73-2.196c-7.324,0-12.193,5.324-12.193,12.432
	c0,7.457,5.362,12.41,11.965,12.41c3.135,0,3.956-0.313,5.085-0.541v-9.652h-6.682v-3.729h11.239v16.51
	c-1.729,0.6-4.736,1.405-9.695,1.405c-10.051,0-16.732-6.46-16.732-16.552c0-9.774,7.096-16.282,16.785-16.282
	c4.64,0,6.677,0.685,9.318,1.597L572.107,149.596z"/>
<path fill="#FFFFFF" d="M590.812,143.94h17.789v4.02h-13.232v9.26h12.049v4.021h-12.049v10.459h13.232v3.998h-17.789V143.94z"/>
<path fill="#FFFFFF" d="M661.634,172.24c7.324,0,10.463-6.089,10.463-12.41c0-6.465-3.463-12.469-10.463-12.432
	c-7-0.037-10.465,5.967-10.465,12.432C651.169,166.151,654.31,172.24,661.634,172.24 M661.634,143.399
	c9.641,0,15.279,7.006,15.279,16.431c0,9.637-5.596,16.408-15.279,16.408s-15.279-6.771-15.279-16.408
	C646.355,150.405,651.992,143.399,661.634,143.399"/>
<path fill="#FFFFFF" d="M692.865,143.94h16.865v4.02h-12.32v9.26h11.779v4.021H697.41v14.457h-4.545V143.94z"/>
<path fill="#FFFFFF" d="M748.208,143.94h17.789v4.02h-13.244v9.26h12.051v4.021h-12.051v10.459h13.244v3.998h-17.789V143.94z"/>
<path fill="#FFFFFF" d="M782.962,143.94h6.193l14.008,25.563h0.078V143.94h4.563v31.757h-5.824l-14.377-26.104h-0.086v26.104h-4.555
	V143.94z"/>
<path fill="#FFFFFF" d="M849.71,149.596c-2.238-1.469-4.641-2.196-8.74-2.196c-7.314,0-12.184,5.324-12.184,12.432
	c0,7.457,5.363,12.41,11.955,12.41c3.145,0,3.957-0.313,5.096-0.541v-9.652h-6.682v-3.729h11.238v16.51
	c-1.74,0.6-4.736,1.405-9.695,1.405c-10.049,0-16.738-6.46-16.738-16.552c0-9.774,7.102-16.282,16.781-16.282
	c4.641,0,6.688,0.685,9.328,1.597L849.71,149.596z"/>
<path fill="#FFFFFF" d="M868.187,143.94h4.545v31.757h-4.547L868.187,143.94z"/>
<path fill="#FFFFFF" d="M890.523,143.94h6.174l14.016,25.563h0.092V143.94h4.549v31.757h-5.822l-14.377-26.104h-0.096v26.104h-4.535
	V143.94z"/>
<path fill="#FFFFFF" d="M933.386,143.94h17.777v4.02h-13.242v9.26h12.059v4.021h-12.059v10.459h13.242v3.998h-17.777V143.94z"/>
<path fill="#FFFFFF" d="M968.417,143.94h17.777v4.02h-13.242v9.26h12.061v4.021h-12.061v10.459h13.242v3.998h-17.777V143.94z"/>
<path fill="#FFFFFF" d="M1007.49,157.593h3.867c4.316,0,6.861-1.903,6.861-4.953c0-2.88-2.174-4.678-6.357-4.678h-4.371V157.593z
	 M1002.945,143.942h7.775c6.279,0,12.33,1.013,12.33,8.597c0,3.871-2.869,6.607-6.561,7.229v0.105
	c1.422,0.536,2.096,1.221,3.098,3.166l6.008,12.66h-5.186l-4.869-11.021c-1.41-3.087-2.912-3.087-5.314-3.087h-2.736v14.107h-4.545
	V143.942z"/>
<path fill="#FFFFFF" d="M1040.746,143.94h4.547v31.757h-4.547V143.94z"/>
<path fill="#FFFFFF" d="M1063.074,143.94h6.184l14.006,25.563h0.09V143.94h4.551v31.757h-5.822l-14.367-26.104h-0.096v26.104h-4.545
	V143.94z"/>
<path fill="#FFFFFF" d="M1129.812,149.596c-2.227-1.469-4.641-2.196-8.73-2.196c-7.324,0-12.191,5.324-12.191,12.432
	c0,7.457,5.371,12.41,11.965,12.41c3.133,0,3.955-0.313,5.09-0.541v-9.652h-6.688v-3.729h11.238v16.51
	c-1.729,0.6-4.736,1.405-9.684,1.405c-10.051,0-16.744-6.46-16.744-16.552c0-9.774,7.098-16.282,16.787-16.282
	c4.641,0,6.688,0.685,9.318,1.597L1129.812,149.596z"/>
<path fill="#FFFFFF" d="M379.75,194.282c-2.323-0.913-3.596-1.326-5.967-1.326c-2.545,0-5.542,0.912-5.542,4.228
	c0,6.109,13.641,4.703,13.641,15.141c0,6.799-5.229,9.473-11.599,9.473c-2.228,0-4.412-0.647-6.508-1.326l0.457-4.227
	c1.554,0.642,4.279,1.554,6.597,1.554c2.594,0,6.227-1.453,6.227-5.182c0-7.106-13.641-5.14-13.641-15.02
	c0-5.638,4.466-8.64,10.193-8.64c2.09,0,4.588,0.371,6.772,1.141L379.75,194.282z"/>
<path fill="#FFFFFF" d="M393.797,189.496h17.788v4.02h-13.243v9.26h12.061v4.021h-12.061v10.458h13.243v4h-17.788V189.496z"/>
<path fill="#FFFFFF" d="M438.007,217.795c7.324,0,10.464-6.088,10.464-12.41c0-6.465-3.463-12.469-10.464-12.432
	c-7.001-0.037-10.464,5.967-10.464,12.432C427.543,211.707,430.693,217.795,438.007,217.795 M438.007,188.955
	c9.642,0,15.29,7.006,15.29,16.43c0,9.637-5.595,16.409-15.29,16.409c-9.685,0-15.279-6.772-15.279-16.409
	C422.728,195.961,428.376,188.955,438.007,188.955"/>
<path fill="#FFFFFF" d="M489.964,208.1c0,8.932-4.497,13.693-12.314,13.693c-7.823,0-12.325-4.762-12.325-13.693v-18.604h4.545
	v18.026c0,6.089,1.904,10.273,7.78,10.273c5.86,0,7.78-4.185,7.78-10.273v-18.026h4.534V208.1z"/>
<path fill="#FFFFFF" d="M503.585,189.496h4.545v27.758h13.28v4h-17.825V189.496z"/>
<path fill="#FFFFFF" d="M549.96,189.496h6.184l14.006,25.563h0.09v-25.563h4.551v31.758h-5.822l-14.368-26.104h-0.096v26.104h-4.545
	V189.496z"/>
<path fill="#FFFFFF" d="M600.632,193.785l-6.316,15.725h12.645L600.632,193.785z M598.406,189.494h4.773l13.428,31.764h-4.965
	l-3.229-8.02h-15.551l-3.229,8.02h-4.779L598.406,189.494z"/>
<path fill="#FFFFFF" d="M629.667,193.516h-9.869v-4.021h24.289v4.021h-9.875v27.736h-4.545V193.516z"/>
<path fill="#FFFFFF" d="M654.144,189.497h4.533v31.757h-4.533V189.497z"/>
<path fill="#FFFFFF" d="M685.914,217.795c7.324,0,10.465-6.088,10.465-12.41c0-6.465-3.463-12.469-10.465-12.432
	c-7-0.037-10.463,5.967-10.463,12.432C675.451,211.707,678.589,217.795,685.914,217.795 M685.914,188.955
	c9.643,0,15.279,7.006,15.279,16.43c0,9.637-5.594,16.409-15.279,16.409c-9.684,0-15.279-6.772-15.279-16.409
	C670.634,195.961,676.273,188.955,685.914,188.955"/>
<path fill="#FFFFFF" d="M713.125,189.496h6.195l14.006,25.563h0.09v-25.563h4.551v31.758h-5.822l-14.379-26.104h-0.084v26.104
	h-4.557V189.496z"/>
<path fill="#FFFFFF" d="M763.808,193.785l-6.316,15.725h12.645L763.808,193.785z M761.582,189.494h4.773l13.418,31.764h-4.953
	l-3.23-8.02h-15.561l-3.219,8.02h-4.779L761.582,189.494z"/>
<path fill="#FFFFFF" d="M789.839,189.496h4.545v27.758h13.281v4h-17.826V189.496z"/>
<path fill="#FFFFFF" d="M860.96,208.1c0,8.932-4.508,13.693-12.326,13.693c-7.832,0-12.324-4.762-12.324-13.693v-18.604h4.545
	v18.026c0,6.089,1.914,10.273,7.779,10.273c5.861,0,7.77-4.185,7.77-10.273v-18.026h4.557V208.1z"/>
<path fill="#FFFFFF" d="M874.572,189.496h6.184l14.006,25.563h0.09v-25.563h4.551v31.758h-5.822l-14.367-26.104h-0.096v26.104
	h-4.545V189.496z"/>
<path fill="#FFFFFF" d="M912.968,189.497h4.547v31.757h-4.547V189.497z"/>
<path fill="#FFFFFF" d="M944.976,221.255h-5.684l-11.965-31.757h5.096l9.779,27.758h0.09l10.051-27.758h4.773L944.976,221.255z"/>
<path fill="#FFFFFF" d="M967.175,189.496h17.787v4.02H971.73v9.26h12.051v4.021H971.73v10.458h13.232v4h-17.787V189.496z"/>
<path fill="#FFFFFF" d="M1002.019,203.148h3.873c4.311,0,6.857-1.903,6.857-4.953c0-2.879-2.176-4.678-6.359-4.678h-4.371V203.148z
	 M997.474,189.498h7.775c6.279,0,12.33,1.013,12.33,8.597c0,3.872-2.869,6.608-6.549,7.229v0.106c1.41,0.535,2.096,1.22,3.086,3.166
	l6.01,12.659h-5.188l-4.857-11.021c-1.422-3.086-2.922-3.086-5.324-3.086h-2.738v14.106h-4.545V189.498z"/>
<path fill="#FFFFFF" d="M1045.462,194.282c-2.322-0.913-3.596-1.326-5.955-1.326c-2.551,0-5.553,0.912-5.553,4.228
	c0,6.109,13.641,4.703,13.641,15.141c0,6.799-5.219,9.473-11.588,9.473c-2.229,0-4.412-0.647-6.508-1.326l0.455-4.227
	c1.545,0.642,4.281,1.554,6.598,1.554c2.594,0,6.227-1.453,6.227-5.182c0-7.106-13.641-5.14-13.641-15.02
	c0-5.638,4.455-8.64,10.184-8.64c2.09,0,4.598,0.371,6.783,1.141L1045.462,194.282z"/>
<path fill="#FFFFFF" d="M1059.287,189.497h4.547v31.757h-4.547V189.497z"/>
<path fill="#FFFFFF" d="M1083.738,193.516h-9.869v-4.021h24.289v4.021h-9.875v27.736h-4.545V193.516z"/>
<path fill="#FFFFFF" d="M1117.082,207.977l-12.41-18.479h5.314l9.457,14.251l9.242-14.251h5.32l-12.379,18.479v13.279h-4.545
	V207.977z"/>
<path fill="#FFFFFF" d="M393.973,279.697v-23.659h-8.867v-4.163h8.867v-13.9h4.498v41.723H393.973z M386.506,271.636
	c-3.511-1.612-8.507-7.394-10.618-12.511c-1.262,4.641-6.756,11.041-10.617,13.365l-3.606-2.986
	c8.332-4.826,11.832-12.368,11.832-22.625v-6.587h4.73v6.587c0,10.385,3.866,16.701,11.291,21.342L386.506,271.636z"/>
<path fill="#FFFFFF" d="M473.142,241.061c-6.401,0-10.172,1.697-10.172,4.02c0,2.238,3.866,4.078,10.172,4.078
	c6.205,0,10.162-1.798,10.162-4.035C483.304,242.8,479.442,241.061,473.142,241.061 M473.142,252.436
	c-9.943,0-15.125-2.943-15.125-7.313c0-4.313,5.182-7.484,15.125-7.484c9.987,0,15.115,3.315,15.115,7.484
	C488.257,249.492,483.129,252.436,473.142,252.436 M470.84,259.023h-17.501v-3.691h39.585v3.691H475.65v3.314h12.161v10.066H463.24
	v3.213h25.553v3.602h-30.331v-10.273h24.528v-3.044h-24.528v-3.563h12.378V259.023z"/>
<path fill="#FFFFFF" d="M576.912,279.697v-21.67h-5.086v19.787h-4.359v-38.891h4.359v14.797h5.086v-15.746h4.371v41.723H576.912z
	 M556.176,270.416l-7.924,0.085v-27.409h14.129v4.079h-9.674v19.103l5.123-0.042c2.439-0.04,4.875-0.228,7.292-0.562v4.083
	C563.775,269.98,561.123,270.31,556.176,270.416"/>
<path fill="#FFFFFF" d="M671.007,253.532v10.999h-4.455v-26.56h4.455v11.439h5.639v4.121H671.007z M650.187,253.389
	c-3.967,0-5.988,1.363-5.988,3.352c0,2.053,2.021,3.463,5.988,3.463c3.955,0,5.887-1.474,5.887-3.5
	C656.074,254.715,654.142,253.389,650.187,253.389 M643.515,237.786h13.184v3.648h-13.184V237.786z M666.474,279.699v-8.867h-24.656
	v-3.75h29.242v12.617H666.474z M639.33,256.74c0-3.935,4.238-6.814,10.857-6.814c6.836,0,10.701,2.88,10.701,6.814
	c0,3.941-3.955,6.942-10.791,6.942C643.611,263.683,639.33,260.682,639.33,256.74 M637.58,244.188h25.07v3.648h-25.07V244.188z"/>
<path fill="#FFFFFF" d="M760.349,264.802h-4.412c0.096-0.557,2.074-11.662,2.207-18.148h-26.279v-4.041h31.232
	C762.958,246.987,761.787,257.838,760.349,264.802 M727.691,274.205v-3.994h9.26v-14.318h4.545v14.318h5.898v-14.318h4.545v14.318
	h15.342v3.994H727.691z"/>
<path fill="#FFFFFF" d="M828.083,271.887c0,3.129,4.412,4.726,10.846,4.726c6.338,0,10.846-1.597,10.846-4.726
	c0-2.9-4.508-4.556-10.846-4.556C832.496,267.331,828.083,268.986,828.083,271.887 M851.843,254.051h-4.6
	c0.096-0.334,1.629-6.507,2.031-10.379h-25.604v-3.998h30.732C854.361,243.237,853.058,250.195,851.843,254.051 M838.929,280.361
	c-10.078,0-15.758-3.5-15.758-8.432c0-4.891,5.68-8.391,15.705-8.391c10.129,0,15.799,3.5,15.799,8.391
	C854.675,276.861,849.048,280.361,838.929,280.361 M819.13,260.495v-3.94h14.809V248.6h4.586v7.955h20.197v3.94H819.13z"/>
<path fill="#FFFFFF" d="M945.267,237.975v17.691h5.893v4.079h-5.893v19.952h-4.508v-41.723H945.267z M933.345,262.296h-4.455
	c0.084-0.52,1.617-10.628,1.707-15.561h-17.453v-3.978h22.311C935.498,248.168,934.421,256.473,933.345,262.296 M915.759,272.404
	h-4.779v-3.999h7.658v-13.216h4.449v13.174c3.729,0,13.758-0.807,15.879-1.135v3.935
	C931.259,272.014,923.511,272.428,915.759,272.404"/>
<path fill="#FFFFFF" d="M1034.152,279.697v-21.67h-5.086v19.787h-4.359v-38.891h4.359v14.797h5.086v-15.746h4.359v41.723H1034.152z
	 M1013.404,270.416l-7.912,0.085v-27.409h14.129v4.079h-9.674v19.103l5.123-0.042c2.439-0.04,4.875-0.228,7.293-0.562v4.083
	C1021.015,269.98,1018.353,270.31,1013.404,270.416"/>
<path fill="#FFFFFF" d="M1128.248,253.532v10.999h-4.455v-26.56h4.455v11.439h5.627v4.121H1128.248z M1107.416,253.389
	c-3.957,0-5.977,1.363-5.977,3.352c0,2.053,2.02,3.463,5.977,3.463c3.967,0,5.898-1.474,5.898-3.5
	C1113.314,254.715,1111.382,253.389,1107.416,253.389 M1100.755,237.786h13.184v3.648h-13.184V237.786z M1123.714,279.699v-8.867
	h-24.668v-3.75h29.254v12.617H1123.714z M1096.57,256.74c0-3.935,4.238-6.814,10.846-6.814c6.848,0,10.713,2.88,10.713,6.814
	c0,3.941-3.955,6.942-10.803,6.942C1100.851,263.683,1096.57,260.682,1096.57,256.74 M1094.82,244.188h25.059v3.648h-25.059V244.188
	z"/>
<path fill="#FFFFFF" d="M414.41,59.354h6.629c2.133,0,3.914-1.183,3.914-3.999V42.717c0-1.978-0.928-3.686-3.532-3.686h-55.819
	c-2.132,0-3.553,1.389-3.553,3.686v6.237c0,2.095,1.013,3.728,3.553,3.728h3.968v56.371h-3.968c-2.333,0-3.553,1.554-3.553,3.686
	v6.279c0,1.904,0.934,3.739,3.553,3.739h55.83c2.345,0,3.511-1.575,3.511-3.739v-14.707c0-3.07-2.089-3.978-3.85-3.978h-6.608
	c-2.01,0-3.919,1.241-3.919,3.978l0.042,4.742H386.09V86.413h18.037v4.391c0,2.546,1.771,3.5,3.352,3.5h5.584
	c1.687,0,3.41-0.828,3.41-3.5V68.635c0-2.153-1.368-3.49-3.367-3.49h-5.574c-2.206,0-3.404,1.458-3.404,3.49v4.089H386.09V52.682
	h24.465v2.673C410.555,57.678,412.119,59.354,414.41,59.354"/>
<path fill="#FFFFFF" d="M791.806,59.354h6.598c2.143,0,3.926-1.183,3.926-3.999V42.717c0-1.978-0.902-3.686-3.543-3.686h-55.799
	c-2.131,0-3.543,1.389-3.543,3.686v6.237c0,2.095,0.992,3.728,3.543,3.728h3.988v56.371h-3.988c-2.35,0-3.543,1.554-3.543,3.686
	v6.279c0,1.904,0.924,3.739,3.543,3.739h55.82c2.354,0,3.494-1.575,3.494-3.739v-14.707c0-3.07-2.084-3.978-3.844-3.978h-6.609
	c-1.988,0-3.898,1.241-3.898,3.978l0.021,4.742h-24.486V86.413h18.027l-0.012,4.391c0,2.546,1.793,3.5,3.354,3.5h5.572
	c1.713,0,3.4-0.828,3.4-3.5l0.021-22.168c0-2.153-1.357-3.49-3.348-3.49h-5.594c-2.207,0-3.395,1.458-3.395,3.49v4.089h-18.027
	V52.682h24.449v2.673C787.935,57.678,789.484,59.354,791.806,59.354"/>
<path fill="#FFFFFF" d="M860.908,59.354h6.607c2.133,0,3.914-1.183,3.914-3.999V42.717c0-1.978-0.928-3.686-3.521-3.686h-55.83
	c-2.131,0-3.553,1.389-3.553,3.686v6.237c0,2.095,1.035,3.728,3.553,3.728h3.988v56.371h-3.988c-2.328,0-3.553,1.554-3.553,3.686
	v6.279c0,1.904,0.924,3.739,3.553,3.739h55.83c2.346,0,3.502-1.575,3.502-3.739v-14.707c0-3.07-2.059-3.978-3.84-3.978h-6.598
	c-2.021,0-3.91,1.241-3.91,3.978v4.742h-24.475V86.413h18.027v4.391c0,2.546,1.76,3.5,3.352,3.5h5.574
	c1.691,0,3.398-0.828,3.398-3.5V68.635c0-2.153-1.348-3.49-3.357-3.49h-5.574c-2.205,0-3.393,1.458-3.393,3.49v4.089h-18.027V52.682
	h24.449v2.673C857.037,57.678,858.595,59.354,860.908,59.354"/>
<path fill="#FFFFFF" d="M504.694,39.03h-20.159c-2.577,0-3.553,1.66-3.553,3.686v6.258c0,1.925,0.923,3.707,3.553,3.707h2.986V92.15
	l-28.872-53.12h-21.856c-3.022,0-3.574,2.529-3.574,3.686v6.258c0,2.052,1.141,3.707,3.574,3.707h3.225v56.414h-3.225
	c-2.434,0-3.574,1.813-3.574,3.728v6.258c0,2.238,1.235,3.729,3.574,3.729h19.374c2.566,0,3.469-1.925,3.469-3.729v-6.258
	c0-2.111-1.141-3.728-3.543-3.728h-2.631V60.308l33.778,62.449h13.704V52.681h3.75c2.63,0,3.542-1.782,3.542-3.707v-6.258
	C508.236,40.669,507.128,39.03,504.694,39.03"/>
<path fill="#FFFFFF" d="M730.445,39.03h-20.17c-2.557,0-3.553,1.66-3.553,3.686v6.258c0,1.925,0.965,3.707,3.553,3.707h2.986V92.15
	L684.41,39.03h-21.867c-2.99,0-3.584,2.529-3.584,3.686v6.258c0,2.052,1.16,3.707,3.584,3.707h3.225v56.414h-3.225
	c-2.424,0-3.584,1.813-3.584,3.728v6.258c0,2.238,1.256,3.729,3.584,3.729h19.375c2.566,0,3.469-1.925,3.469-3.729v-6.258
	c0-2.111-1.152-3.728-3.555-3.728h-2.619V60.308l33.799,62.449h13.672V52.681h3.762c2.609,0,3.563-1.782,3.563-3.707v-6.258
	C734.007,40.669,732.878,39.03,730.445,39.03"/>
<path fill="#FFFFFF" d="M1063.291,39.03h-20.18c-2.568,0-3.543,1.66-3.543,3.686v6.258c0,1.925,0.965,3.707,3.543,3.707h2.984V92.15
	l-28.84-53.12H995.39c-3.014,0-3.564,2.529-3.564,3.686v6.258c0,2.052,1.119,3.707,3.564,3.707h3.213v56.414h-3.213
	c-2.445,0-3.564,1.813-3.564,3.728v6.258c0,2.238,1.225,3.729,3.564,3.729h19.373c2.566,0,3.469-1.925,3.469-3.729v-6.258
	c0-2.111-1.141-3.728-3.555-3.728h-2.641V60.308l33.799,62.449h13.695V52.681h3.76c2.609,0,3.543-1.782,3.543-3.707v-6.258
	C1066.833,40.669,1065.703,39.03,1063.291,39.03"/>
<path fill="#FFFFFF" d="M921.773,62.7v0.074c0,3.373-1.447,5.987-3.844,7.674c-2.381,1.628-5.818,1.894-10.098,1.894h-6.947V52.661
	h8.75c3.379,0.021,7.164,0.811,9.176,2.508C920.761,56.84,921.773,59.375,921.773,62.7 M945.619,109.053h-5.574l-12.521-25.854
	c8.932-4.535,13.238-11.392,13.238-20.838c0.041-5.886-1.943-11.606-5.623-16.202c-3.723-4.715-9.896-7.149-18.461-7.149
	l-35.211,0.021c-2.402,0-3.541,1.682-3.541,3.686v6.237c0,2.153,1.246,3.729,3.541,3.729h3.379v56.371h-3.379
	c-2.316,0-3.541,1.66-3.541,3.691v6.274c0,1.909,1.018,3.739,3.541,3.739h21.867c2.229,0,3.484-1.522,3.484-3.675v-6.258
	c0-2.249-1.182-3.771-3.553-3.771h-2.381V86.47h10.336l16.854,36.255l17.523,0.032c2.529,0,3.574-1.501,3.574-3.675v-6.258
	C949.171,110.484,948.011,109.053,945.619,109.053"/>
<path fill="#FFFFFF" d="M982.183,52.683c2.383,0,3.576-1.369,3.576-3.686v-6.258c0-2.238-1.119-3.707-3.576-3.707h-25.875
	c-2.35,0-3.564,1.469-3.564,3.686v6.237c0,2.01,0.934,3.729,3.564,3.729h4.641v56.371h-4.641c-2.301,0-3.564,1.427-3.564,3.686
	v6.279c0,1.904,1.088,3.739,3.564,3.739h25.949c2.34,0,3.502-1.687,3.502-3.675v-6.258c0-2.01-0.85-3.771-3.576-3.771h-4.734V52.683
	H982.183z"/>
<path fill="#FFFFFF" d="M575.431,79.532h-24.444c-1.564-0.021-2.631,0.578-3.172,1.389c-0.404,0.651-0.602,1.409-0.567,2.174v6.9
	l-0.011,0.329c-0.027,0.753,0.171,1.497,0.567,2.137c0.552,0.774,1.597,1.326,3.108,1.315h10.761v9.011
	c0.021,4.152-3.479,5.372-5.489,5.5h-21.554c-3.648-0.085-5.313-1.718-5.409-5.638V58.816c0-4.227,3.458-5.356,5.399-5.489h27.116
	v6.937c0,2.816,2.435,3.336,3.198,3.336h7.865c0.488,0,1.262-0.074,2.01-0.557c0.732-0.456,1.336-1.453,1.316-2.8v-8.226
	c0.02-6.253-2.859-9.652-5.979-11.329c-3.096-1.681-6.347-1.761-7.418-1.761h-32.596c-0.965,0-4.736,0.042-8.348,2
	c-3.617,1.936-7.017,5.935-7.006,13.392v53.178c0,1.162,0.096,4.911,2.105,8.433c1.999,3.543,6.02,6.799,13.402,6.778l30.484,0.047
	c1.246,0,5.017-0.047,8.571-2c3.547-1.946,6.803-5.902,6.783-13.38V79.532H575.431z"/>
<path fill="#FFFFFF" d="M1133.738,79.532h-24.465c-1.555-0.021-2.619,0.578-3.141,1.389c-0.412,0.647-0.609,1.409-0.561,2.174v7.229
	c0,0.541,0.01,1.368,0.541,2.137c0.541,0.774,1.596,1.326,3.129,1.315h10.738v9.011c0.021,4.152-3.5,5.372-5.479,5.5h-21.563
	c-3.65-0.085-5.326-1.718-5.432-5.638V58.816c0-4.227,3.469-5.356,5.41-5.489h27.117v6.937c0,2.816,2.443,3.336,3.203,3.336h7.881
	c0.488,0,1.252-0.074,1.998-0.557c0.744-0.456,1.316-1.453,1.295-2.8v-8.226c0.021-6.253-2.826-9.652-5.945-11.329
	c-3.107-1.681-6.4-1.761-7.42-1.761h-32.615c-0.967,0-4.736,0.042-8.328,2c-3.648,1.936-7.043,5.935-7.027,13.392v53.178
	c0,1.162,0.129,4.911,2.117,8.433c2,3.543,6.029,6.799,13.402,6.778l29.375,0.047h1.098c1.236,0,5.039-0.047,8.582-2
	c3.543-1.946,6.783-5.902,6.762-13.38l0.021-27.843H1133.738z"/>
<path fill="#FFFFFF" d="M649.804,109.157h-28.156l10.07-27.287c2.25-5.739,1.141-10.533-4.682-10.533h-3.893
	c-1.227,0-1.564,0.074-1.088-1.406l4.783-14.744c0.934-2.487,0.816-2.296,3.283-2.466l15.619-0.021c2.041,0,3.277-1.405,3.277-3.272
	v-7.096c0-1.83-0.922-3.304-3.277-3.304H589.25c-1.857,0-3.295,1.14-3.295,3.283v7.059c0,2.047,1.193,3.331,3.295,3.331
	l22.363,0.021l-6.691,18.541c-2.031,5.245-1.957,11.54,5.658,11.54h3.293c0.992,0,1.135,0.175,0.643,1.49l-7.637,20.366
	c-0.971,2.615-1.613,4.582-3.348,4.498h-18.313c-1.936,0-3.305,1.14-3.305,3.346v6.9c0,1.978,1.088,3.373,3.236,3.373h64.654
	c2.359,0,3.305-1.543,3.305-3.325v-6.895C653.109,110.483,652.021,109.157,649.804,109.157"/>
</svg>
